# xmcd CD database file
#
# Track frame offsets:
#	150
#	26339
#	41978
#	57686
#	68427
#	86395
#	106926
#	130614
#	148629
#	176452
#
# Disc length: 2857 seconds
#
# Revision: 2
# Processed by: cddbd v1.5.2PL0 Copyright (c) Steve Scherf et al.
# Submitted via: CDex 1.70beta2
#
DISCID=800b270a
DTITLE=Shania Twain - Maximum Shania
DYEAR=1999
DGENRE=Country
TTITLE0=Emerging Talent
TTITLE1=Country Roads
TTITLE2=Come On Eilleen
TTITLE3=Command Performance
TTITLE4=Video Star
TTITLE5=Heaven Sent
TTITLE6=Wonder Woman
TTITLE7=Over the Top
TTITLE8=Pop Superdiva
TTITLE9=Well On Her Way
EXTD=YEAR: 1999
EXTT0=
EXTT1=
EXTT2=
EXTT3=
EXTT4=
EXTT5=
EXTT6=
EXTT7=
EXTT8=
EXTT9=
PLAYORDER=
